<?xml version="1.0" encoding="UTF-8" standalone="no"?>
<!-- Created with Inkscape (http://www.inkscape.org/) -->

<svg
   xmlns:dc="http://purl.org/dc/elements/1.1/"
   xmlns:cc="http://creativecommons.org/ns#"
   xmlns:rdf="http://www.w3.org/1999/02/22-rdf-syntax-ns#"
   xmlns:svg="http://www.w3.org/2000/svg"
   xmlns="http://www.w3.org/2000/svg"
   xmlns:sodipodi="http://sodipodi.sourceforge.net/DTD/sodipodi-0.dtd"
   xmlns:inkscape="http://www.inkscape.org/namespaces/inkscape"
   width="300.66522"
   height="288.40039"
   id="svg2"
   sodipodi:version="0.32"
   inkscape:version="0.91 r13725"
   version="1.0"
   sodipodi:docname="logo.svg"
   inkscape:output_extension="org.inkscape.output.svg.inkscape"
   sodipodi:modified="true">
  <defs
     id="defs4" />
  <sodipodi:namedview
     id="base"
     pagecolor="#ffffff"
     bordercolor="#666666"
     borderopacity="1.0"
     gridtolerance="10000"
     guidetolerance="10"
     objecttolerance="10"
     inkscape:pageopacity="0.0"
     inkscape:pageshadow="2"
     inkscape:zoom="1.4"
     inkscape:cx="23.972519"
     inkscape:cy="191.65386"
     inkscape:document-units="px"
     inkscape:current-layer="layer1"
     inkscape:window-width="1858"
     inkscape:window-height="1058"
     inkscape:window-x="58"
     inkscape:window-y="-4"
     showgrid="false"
     inkscape:window-maximized="1" />
  <metadata
     id="metadata7">
    <rdf:RDF>
      <cc:Work
         rdf:about="">
        <dc:format>image/svg+xml</dc:format>
        <dc:type
           rdf:resource="http://purl.org/dc/dcmitype/StillImage" />
        <cc:license
           rdf:resource="http://web.resource.org/cc/PublicDomain" />
      </cc:Work>
      <cc:License
         rdf:about="http://web.resource.org/cc/PublicDomain">
        <cc:permits
           rdf:resource="http://web.resource.org/cc/Reproduction" />
        <cc:permits
           rdf:resource="http://web.resource.org/cc/Distribution" />
        <cc:permits
           rdf:resource="http://web.resource.org/cc/DerivativeWorks" />
      </cc:License>
    </rdf:RDF>
  </metadata>
  <g
     inkscape:label="Layer 1"
     inkscape:groupmode="layer"
     id="layer1"
     transform="translate(-101.3989,-129.55752)">
    <path
       id="path2307"
       d="M 386.18194,393.87314 C 387.83637,392.59615 390.9703,392.45573 389.62167,389.56253 C 389.45847,386.70677 389.90507,382.43822 389.92347,379.60714 C 389.76025,377.46693 390.25784,375.47074 390.45677,373.44658 C 391.58097,370.44335 387.11136,369.64832 385.20066,368.409 C 382.41954,367.46742 379.22107,366.52864 376.38914,367.16513 C 373.01488,367.4311 369.52529,367.13816 366.10743,367.29313 C 363.68378,367.52196 361.39531,368.34499 359.03507,368.7388 C 356.63261,369.30823 354.18941,369.88591 351.96774,371.01144 C 349.78146,371.79044 347.97823,373.50974 347.07031,375.51642 C 347.33092,377.63868 348.34996,379.75959 348.06986,382.00324 C 348.20782,384.57501 348.04377,388.6213 347.51439,391.14176 C 347.97335,391.93749 348.77031,392.52658 349.55373,393.12625 C 356.42831,395.70723 360.47832,396.9147 365.83001,396.9305 C 373.24016,396.95236 379.19264,396.11388 386.18194,393.87314 z "
       style="fill:#000000"
       sodipodi:nodetypes="cccccccccccccsc" />
    <path
       style="fill:#000000"
       d="M 193.14847,405.83473 C 202.51668,408.80008 212.37613,405.28025 221.74638,404.16005 C 230.38377,401.69869 240.58281,402.00914 247.43677,395.91819 C 254.70256,391.84107 256.58613,388.11134 254.72805,380.48806 C 254.63026,364.71617 254.05283,348.83781 255.80216,333.16878 C 256.69082,321.68626 257.6077,310.17612 259.36666,298.72473 C 261.33637,282.33628 263.42368,265.87982 265.48997,249.50138 C 265.42955,236.25916 290.21278,240.44696 283.00798,224.99055 C 282.35527,213.56921 284.14143,202.4365 284.21502,191.11386 C 283.56222,182.55426 285.55231,174.57065 286.3479,166.47523 C 290.84406,154.46405 272.9682,151.28439 265.32657,146.32784 C 254.20367,142.56208 241.41166,138.80749 230.08563,141.3531 C 216.59057,142.41681 202.63425,141.24521 188.96485,141.86499 C 179.27165,142.78021 170.11909,146.0718 160.67952,147.64681 C 151.07108,149.92422 141.29972,152.23461 132.41434,156.73608 C 123.67052,159.85158 116.45866,166.72781 112.82747,174.75336 C 113.86979,183.24117 117.94533,191.72353 116.82508,200.69682 C 117.37687,210.98241 116.72078,221.2262 114.60356,231.30657 C 119.46401,239.7336 133.80317,242.36557 131.51549,255.334 C 133.34379,266.91194 134.93708,278.48722 135.05854,290.13493 C 135.02195,299.2843 137.17487,308.21723 136.1432,317.41797 C 136.54803,327.85155 137.92699,338.19758 137.42563,348.67455 C 138.67155,357.99071 138.96158,367.3892 140.968,376.62009 C 139.82667,387.51882 146.71635,393.92332 155.92034,398.15955 C 164.79304,401.70229 173.73901,404.34999 183.09374,405.56484 C 186.40947,406.11085 189.80465,405.71326 193.14847,405.83473 z "
       id="path2162" />
    <path
       style="fill:#ffffff"
       d="M 192.01013,403.55809 C 200.95309,403.3209 210.04739,404.51848 218.75323,401.80529 C 227.52077,400.46855 235.93907,397.46017 243.95643,393.75477 C 254.33013,391.25027 248.66978,381.09358 250.16055,373.49785 C 250.0469,361.39427 249.94869,349.28126 250.18485,337.17543 C 251.74431,330.64753 251.432,323.72084 252.19325,317.17014 C 253.34068,308.96786 255.11694,300.87382 255.88573,292.60599 C 256.84299,283.80948 258.66983,275.18854 259.04185,266.32813 C 259.69156,261.12558 263.38042,250.65196 253.99758,253.21921 C 245.41771,255.12565 236.64116,256.59778 227.82812,256.99055 C 219.39425,258.14376 210.92762,259.22384 202.41462,258.9307 C 193.43024,260.54983 184.27652,260.58527 175.27068,259.08717 C 167.26567,256.5217 158.96149,258.278 150.87315,259.45885 C 142.87904,261.33419 146.81083,272.15754 154.08432,271.29146 C 168.0886,276.95125 183.29641,278.09529 198.14859,279.52522 C 210.39854,279.70205 222.77634,278.81896 234.71795,276.05344 C 240.86797,275.96537 247.63261,270.02806 253.48006,273.40757 C 252.08766,285.09598 248.7256,296.56872 248.99729,308.41372 C 247.79389,315.22794 247.25247,322.09183 247.94509,328.99432 C 248.44154,332.44889 245.81262,333.54884 246.58133,329.56313 C 247.12251,336.16061 244.17938,341.94317 244.89384,348.74664 C 244.38879,358.29267 243.70077,367.82823 243.23507,377.37645 C 237.71455,381.88162 230.33168,384.11059 223.63037,385.81371 C 216.16927,388.07745 208.46431,387.77913 200.77087,387.62142 C 192.59542,388.60089 186.35657,386.23355 178.7767,386.60355 C 171.62279,384.95081 164.17725,382.84656 157.44926,379.33524 C 149.32129,374.96353 155.48631,388.51703 156.64476,391.7521 C 161.36031,398.70917 170.26931,400.43577 177.91633,402.13198 C 182.61104,402.61673 187.32822,403.08925 192.01013,403.55809 z "
       id="path2164" />
    <path
       style="fill:#ffffff"
       d="M 186.31846,384.20643 C 193.24856,384.13777 200.18106,384.34181 207.10933,384.10614 C 212.06122,382.20915 217.61254,383.71189 222.57852,381.63463 C 228.22689,380.15402 235.05028,379.8461 239.02847,375.02793 C 241.20188,370.4883 240.55637,365.0833 241.05044,360.07243 C 240.81983,353.86298 240.64416,347.60841 241.99969,341.50605 C 242.6162,335.00807 241.06501,328.27541 243.2381,321.96137 C 242.90466,315.57115 244.28356,309.18595 245.03783,302.8835 C 246.51554,295.42203 246.83097,287.77865 248.78302,280.42646 C 249.37854,273.80623 240.60506,280.04018 236.85625,279.77748 C 229.85263,281.91735 222.56407,282.44203 215.3629,283.54113 C 207.71252,284.25257 199.72662,284.50017 192.14546,283.4161 C 186.3409,282.81154 180.49821,282.87851 174.7911,281.5224 C 161.99699,279.53494 149.57234,275.76508 137.3702,271.51156 C 138.50512,278.17046 138.25078,284.98843 139.29069,291.59715 C 140.04822,298.1029 139.11364,304.68548 140.65647,311.09774 C 140.89022,317.70381 140.62338,324.32934 141.87085,330.86541 C 141.70841,337.44836 143.29871,343.87553 143.13494,350.48567 C 142.45076,355.63627 143.15119,360.94325 146.11137,365.33505 C 149.20852,372.7073 157.90572,373.98967 164.08296,377.69075 C 169.46362,379.57364 174.59262,382.18492 180.29743,383.07083 C 182.41061,383.08743 184.32149,383.90286 186.31846,384.20643 z "
       id="path2166" />
    <path
       style="fill:#ffffff"
       d="M 186.31846,251.02159 C 194.36239,250.75443 202.53623,251.57187 210.4972,250.58366 C 215.35456,249.35543 220.48062,250.36221 225.29999,248.84559 C 232.27486,247.95411 239.13945,246.86824 246.12231,245.82717 C 250.90218,243.68563 256.13423,243.38695 260.93884,241.587 C 266.19676,239.07728 271.95879,238.24867 277.05805,235.16357 C 283.62503,232.74161 277.80464,224.81749 279.6743,219.38471 C 279.65478,210.46439 279.57526,201.54262 279.77603,192.62364 C 280.49456,187.86521 283.20597,177.65496 281.75265,175.7889 C 277.21939,179.52056 273.0757,183.94164 267.51134,185.76539 C 262.59848,189.52455 256.15613,189.89871 250.51203,192.14855 C 244.39709,191.52876 238.87501,194.68563 232.78292,195.30032 C 227.2615,196.76906 221.01853,197.29648 215.46739,198.64748 C 207.53408,198.60885 199.59845,198.79371 191.66709,198.54397 C 186.30528,196.87613 180.50875,196.96062 175.20752,195.25496 C 169.50177,194.65955 163.92868,193.49912 158.273,192.41181 C 152.98377,191.12558 147.19181,191.1302 142.0388,189.52385 C 135.51196,189.32986 129.35215,187.46084 123.3063,185.62854 C 119.90364,183.79914 117.91559,184.13099 120.37589,188.13293 C 120.48094,194.17008 123.55197,199.81937 122.57262,206.15977 C 122.89482,212.74387 121.54882,219.2692 120.72717,225.49221 C 117.27094,232.34082 124.8281,234.14159 129.31012,236.49053 C 133.90327,239.56223 139.28839,241.02664 144.25258,243.37388 C 151.23829,245.14218 158.10742,247.85714 165.40262,247.82772 C 171.89062,249.83771 178.58656,250.04609 185.21833,251.10451 L 186.31846,251.02159 L 186.31846,251.02159 z "
       id="path2168" />
    <path
       style="fill:#000000"
       d="M 152.60073,240.52701 L 152.60073,230.67109 L 152.60073,240.52701 z "
       id="path2170" />
    <path
       style="fill:#000000"
       d="M 155.58351,240.77661 L 154.44518,214.59497 L 154.44518,213.45664 L 154.44518,240.77661 L 155.58351,240.77661 z "
       id="path2172" />
    <path
       style="fill:#000000"
       d="M 149.89185,239.63828 L 151.03019,238.49994 L 151.03019,237.36161 L 151.03019,236.22328 L 149.89185,206.62664 L 149.89185,239.63828 z "
       id="path2174" />
    <path
       style="fill:#000000"
       d="M 144.2002,239.63828 L 143.06186,223.70162 L 144.2002,239.63828 z "
       id="path2176" />
    <path
       style="fill:#000000"
       d="M 138.50853,237.36161 L 137.3702,208.90331 L 136.23186,235.08495 L 138.50853,237.36161 z "
       id="path2178" />
    <path
       style="fill:#000000"
       d="M 264.86338,236.22328 L 266.00171,215.7333 L 264.86338,236.22328 z "
       id="path2180" />
    <ellipse
       style="fill:#000000"
       cx="18"
       cy="70"
       rx="1"
       ry="13"
       id="ellipse2182"
       transform="matrix(1.138332,0,0,1.138332,112.3269,139.46506)"
       sodipodi:ry="13"
       sodipodi:rx="1"
       sodipodi:cy="70"
       sodipodi:cx="18" />
    <path
       style="fill:#000000"
       d="M 255.75673,231.66995 L 255.75673,202.07332 L 254.6184,231.66995 L 255.75673,231.66995 z "
       id="path2184" />
    <path
       style="fill:#000000"
       d="M 259.78388,226.97512 L 259.78388,190.01541 L 259.78388,226.97512 z "
       id="path2186" />
    <path
       style="fill:#000000"
       d="M 270.55504,227.11663 L 271.69337,227.11663 L 271.69337,189.55167 L 270.55504,227.11663 z "
       id="path2188" />
    <path
       style="fill:#000000"
       d="M 275.10837,225.97829 L 275.10837,206.62664 L 273.97004,224.83996 L 275.10837,227.11663 L 275.10837,225.97829 z "
       id="path2190" />
    <ellipse
       style="fill:#000000"
       cx="14"
       cy="67"
       rx="1"
       ry="8"
       id="ellipse2192"
       transform="matrix(1.138332,0,0,1.138332,112.3269,139.46506)"
       sodipodi:ry="8"
       sodipodi:rx="1"
       sodipodi:cy="67"
       sodipodi:cx="14" />
    <path
       style="fill:#000000"
       d="M 265.94383,209.72725 L 265.94383,185.08745 L 265.94383,209.72725 z "
       id="path2194" />
    <path
       style="fill:#ffffff"
       d="M 201.11679,194.105 C 206.28069,196.04755 212.19527,195.5119 217.37949,194.19516 C 224.17801,194.5276 230.39991,191.90193 237.21366,191.61135 C 242.0712,189.21903 247.57437,189.01851 252.72251,188.08018 C 257.49372,187.01411 261.2744,183.7535 265.86741,182.4418 C 270.54774,179.88638 275.31134,177.08587 278.98679,173.15284 C 282.96038,170.54658 285.67889,161.27396 280.8112,159.31781 C 275.63568,155.17731 268.94074,153.69232 263.20415,150.31417 C 257.04251,148.2402 250.80283,145.98364 244.36983,145.05661 C 239.76453,143.04374 233.04555,145.34618 229.34822,142.9767 C 224.0744,144.91332 218.32807,143.03603 212.80458,143.08046 C 206.19865,143.98128 199.30868,144.05914 192.65449,145.15672 C 185.88286,144.42416 179.69011,147.42034 173.07961,147.405 C 167.5481,147.63987 162.39267,149.49736 157.05588,150.8685 C 151.51895,151.38151 146.47145,154.43097 141.24595,156.26004 C 136.11668,157.38581 132.46629,161.10534 127.91679,163.15294 C 124.47992,166.33474 117.48043,168.63602 118.01856,174.35736 C 118.5865,181.03929 128.2804,180.55779 133.25583,183.26066 C 138.20487,184.52942 142.89471,185.66788 147.92297,187.20489 C 152.36088,188.53675 157.11298,189.96676 161.89472,189.52117 C 167.93803,189.42675 173.37711,192.4549 179.48369,191.81757 C 186.58156,193.22044 193.70033,194.32261 201.11679,194.105 L 201.11679,194.105 z "
       id="path2196" />
    <path
       style="fill:#000000"
       d="M 169.2435,187.275 C 177.21182,186.89556 185.18015,186.51612 193.14847,186.13668 C 191.007,182.85613 186.66267,183.46619 183.33726,182.62907 C 178.9299,181.51872 174.2689,181.34428 170.06343,179.49615 C 166.86826,179.31948 164.00775,182.98206 160.82509,181.08375 C 157.45122,180.21185 153.8584,179.78032 150.52482,178.58263 C 146.66483,177.7188 142.73904,176.47975 139.75837,173.76717 C 137.09599,172.59168 133.33464,167.78168 137.32788,165.9956 C 140.49336,165.06907 143.56127,163.94064 146.52321,162.47285 C 157.30891,158.43556 168.89807,157.40366 179.92267,154.2065 C 183.38436,153.27115 186.97917,152.91549 190.49563,152.20213 C 194.12968,151.58462 198.42947,152.19974 201.21768,149.25252 C 201.26664,145.58941 195.87287,147.98528 193.54536,148.10676 C 189.67624,148.93595 186.15888,151.23953 182.09905,151.16391 C 176.43053,152.07904 171.05005,154.26378 165.36578,155.10744 C 162.24141,156.33183 159.08617,157.51515 155.67897,157.48307 C 151.78863,157.78464 147.86949,158.46571 144.36151,160.23677 C 141.04112,161.3973 137.91737,163.07895 134.80515,164.6665 C 131.91099,167.06154 131.87001,172.09441 134.36265,174.77251 C 138.92269,178.35707 144.27429,181.34934 150.16654,181.83174 C 155.18368,182.8512 160.25179,183.58787 165.31074,184.363 C 166.81693,185.04537 167.94719,186.28797 169.2435,187.275 z "
       id="path2198" />
    <path
       style="fill:#000000"
       d="M 207.94678,187.275 C 211.95147,185.3554 216.64714,186.7061 220.69521,184.89884 C 225.0964,183.64739 229.76419,183.81966 234.14179,182.43013 C 240.9747,180.7325 247.81537,178.9552 254.42702,176.52688 C 259.84565,174.02129 264.61916,170.38585 269.43006,166.90205 C 271.42536,163.89566 270.92361,159.86373 269.51216,156.74101 C 267.33965,153.84901 263.6363,152.93389 260.56408,151.35464 C 256.11643,150.00974 251.47264,149.45907 246.94516,148.48628 C 243.84014,148.25521 240.71355,148.98612 237.62499,148.42594 C 235.39266,145.71209 231.81637,146.43155 228.90828,147.19016 C 224.40818,147.65887 219.88496,147.9737 215.42485,148.76231 C 212.25532,150.38045 215.82891,154.33872 218.32892,152.89057 C 223.00874,153.82268 227.65086,155.05472 232.42446,155.41464 C 232.80115,151.70118 237.15514,150.76265 240.24732,150.81369 C 243.99929,150.59144 247.74499,151.08148 251.36141,152.06614 C 256.24417,153.08478 261.69303,153.6728 265.52006,157.18291 C 267.73172,159.73275 268.90944,163.56363 267.71925,166.79374 C 265.57566,169.78173 261.80591,170.76811 258.57382,172.08508 C 254.02139,173.23848 250.13501,176.1378 245.53818,177.19821 C 236.93096,179.69815 228.04004,181.0096 219.34258,183.14399 C 214.78627,184.14693 210.23002,185.15016 205.67012,186.13668 C 206.89227,185.2257 206.7231,188.12625 207.94678,187.275 z "
       id="path2200" />
    <path
       id="path2279"
       d="M 365.70402,394.43476 C 367.57089,394.37275 369.46791,394.56247 371.31553,394.33312 C 372.44284,394.04807 373.63251,394.28173 374.75103,393.92974 C 376.36978,393.72284 377.96294,393.47083 379.58355,393.22921 C 380.69287,392.7322 381.90715,392.66287 383.02223,392.24513 C 384.24251,391.66267 385.57978,391.47037 386.76324,390.75437 C 388.28733,390.19226 386.93651,388.35321 387.37042,387.09235 C 387.3659,385.02207 387.34744,382.95147 387.39404,380.88151 C 387.5608,379.77717 388.19007,377.40753 387.85278,376.97445 C 386.80068,377.84051 385.83899,378.86657 384.5476,379.28983 C 383.40741,380.16227 381.91224,380.24911 380.60233,380.77125 C 379.18316,380.62742 377.79326,382.8764 376.37937,383.01905 C 375.09794,383.35994 373.75736,381.96601 372.46903,382.27956 C 370.62783,382.27059 368.7861,382.31349 366.94536,382.25553 C 365.70097,381.86846 364.35568,381.88807 363.12535,381.49221 C 361.80114,381.35403 360.50772,381.08471 359.19512,380.83236 C 357.96757,380.53385 356.62335,380.53492 355.42742,380.1621 C 353.91264,380.11709 352.48305,379.68332 351.0799,379.25807 C 350.2902,378.8335 349.82881,378.91051 350.39981,379.8393 C 350.42418,381.24043 351.13692,382.55153 350.90963,384.02304 C 350.98441,385.5511 350.67202,387.06553 350.48134,388.50979 C 349.67919,390.09924 351.43309,390.51718 352.4733,391.06233 C 353.5393,391.77521 354.7891,392.11508 355.94121,392.65985 C 357.56247,393.07024 359.15669,393.70034 360.84979,393.69351 C 362.35556,394.16 363.90958,394.20836 365.4487,394.454 L 365.70402,394.43476 L 365.70402,394.43476 z "
       style="fill:#ffffff"
       sodipodi:nodetypes="ccccccccccccccccccccccccccc" />
    <path
       id="path2301"
       d="M 369.13849,380.40034 C 370.33693,380.85117 371.70962,380.72686 372.9128,380.42126 C 374.49062,380.49841 375.93463,379.88904 377.51599,379.8216 C 378.64335,379.26638 379.92055,379.21984 381.11535,379.00207 C 382.22266,378.75465 383.10011,377.99793 384.16608,377.69349 C 385.25231,377.10042 386.35785,376.45047 387.21087,375.53767 C 388.13308,374.9328 388.764,372.78078 387.63428,372.32678 C 386.43313,371.36584 384.87934,371.0212 383.54797,370.23718 C 382.11795,369.75585 380.66982,369.23214 379.17683,369.01699 C 378.10801,368.54983 376.54863,369.0842 375.69055,368.53427 C 374.46658,368.98373 373.13295,368.54804 371.85104,368.55835 C 370.35862,368.61817 368.37378,368.6516 367.65602,368.82944 C 365.86541,369.2731 366.86894,370.04977 365.7665,370.23162 C 364.19491,370.0616 364.16569,369.56557 362.6315,369.56201 C 361.34772,369.61652 360.15123,370.04761 358.91265,370.36584 C 357.62761,370.48489 356.45617,371.19262 355.24341,371.61712 C 354.05298,371.8784 353.2058,372.74164 352.14992,373.21686 C 351.35228,373.95531 349.72781,374.48939 349.8527,375.81723 C 349.98451,377.36799 352.23432,377.25625 353.38903,377.88354 C 354.53763,378.178 355.62607,378.44222 356.79304,378.79893 C 357.82301,379.10804 358.9259,379.43992 360.03567,379.3365 C 361.43822,379.31459 362.70054,380.01737 364.11778,379.86946 C 365.76509,380.19505 367.41724,380.45084 369.13849,380.40034 L 369.13849,380.40034 z "
       style="fill:#ffffff"
       sodipodi:nodetypes="cccccccccccscccccccccccc" />
    <path
       style="fill:none;fill-rule:evenodd;stroke:#000000;stroke-width:1.41923034;stroke-linecap:butt;stroke-linejoin:miter;stroke-miterlimit:4;stroke-dasharray:none;stroke-opacity:1"
       d="M 366.54823,368.72874 C 377.59572,379.45132 377.59572,380.20949 377.59572,380.20949"
       id="path2309"
       sodipodi:nodetypes="cc" />
    <path
       sodipodi:nodetypes="cc"
       id="path3280"
       d="M 363.51556,369.05368 C 374.56308,379.77626 374.56308,380.53442 374.56308,380.53442"
       style="fill:none;fill-rule:evenodd;stroke:#000000;stroke-width:1.41923034;stroke-linecap:butt;stroke-linejoin:miter;stroke-miterlimit:4;stroke-dasharray:none;stroke-opacity:1" />
    <path
       sodipodi:nodetypes="cccccccccccccsc"
       style="fill:#000000"
       d="M 307.14834,370.90105 C 305.66798,369.82237 302.8638,369.70376 304.07054,367.25987 C 304.21656,364.8476 303.81695,361.24195 303.80049,358.85053 C 303.94654,357.04269 303.5013,355.35651 303.3233,353.64669 C 302.31738,351.10986 306.31671,350.4383 308.02636,349.39143 C 310.51487,348.59608 313.37681,347.8031 315.91076,348.34074 C 318.92999,348.56541 322.05241,348.31796 325.11065,348.44887 C 327.27929,348.64215 329.32697,349.33736 331.43887,349.67001 C 333.58855,350.15103 335.77468,350.63899 337.76259,351.58973 C 339.71884,352.24775 341.33234,353.70005 342.14474,355.39509 C 341.91154,357.18777 340.99972,358.97931 341.25035,360.87452 C 341.1269,363.04691 341.27369,366.46481 341.74738,368.59385 C 341.33671,369.26601 340.6236,369.76361 339.92261,370.27015 C 333.77136,372.45031 330.14748,373.47027 325.35889,373.48361 C 318.72841,373.50207 313.40224,372.79381 307.14834,370.90105 z "
       id="path3282" />
    <path
       sodipodi:nodetypes="ccccccccccccccccccccccccccc"
       style="fill:#ffffff"
       d="M 325.47162,371.37545 C 323.80117,371.32307 322.10375,371.48333 320.45054,371.28959 C 319.44185,371.04882 318.37734,371.24619 317.37651,370.94886 C 315.92809,370.77409 314.50255,370.56121 313.05246,370.35713 C 312.05986,369.9373 310.97335,369.87874 309.9756,369.52587 C 308.8837,369.03387 307.68714,368.87142 306.6282,368.26662 C 305.26447,367.79181 306.47316,366.23835 306.08491,365.1733 C 306.08896,363.42454 306.10547,361.67549 306.06377,359.92699 C 305.91456,358.99415 305.3515,356.99251 305.6533,356.62669 C 306.59471,357.35825 307.4552,358.22497 308.61072,358.5825 C 309.63094,359.31945 310.9688,359.3928 312.14088,359.83386 C 313.41073,359.71236 314.65438,361.61208 315.9195,361.73258 C 317.0661,362.02052 318.26563,360.84308 319.4184,361.10793 C 321.06588,361.10035 322.71383,361.13659 324.36089,361.08763 C 325.47435,360.76067 326.67809,360.77724 327.77896,360.44285 C 328.96385,360.32613 330.12117,360.09863 331.29567,359.88548 C 332.39405,359.63332 333.59684,359.63423 334.66693,359.31931 C 336.02234,359.28128 337.3015,358.91488 338.55702,358.55567 C 339.26362,358.19703 339.67648,358.26209 339.16555,359.04664 C 339.14375,360.23018 338.506,361.33767 338.70938,362.58065 C 338.64247,363.87141 338.92198,365.15065 339.0926,366.37062 C 339.81034,367.71323 338.24099,368.06627 337.31023,368.52675 C 336.35639,369.12893 335.23809,369.41602 334.20721,369.87619 C 332.75653,370.22284 331.33005,370.75509 329.81509,370.74932 C 328.46776,371.14337 327.07726,371.18422 325.70007,371.3917 L 325.47162,371.37545 L 325.47162,371.37545 z "
       id="path3284" />
    <path
       sodipodi:nodetypes="cccccccccccscccccccccccc"
       style="fill:#ffffff"
       d="M 322.39852,359.52055 C 321.32617,359.90136 320.09791,359.79636 319.02133,359.53822 C 317.60952,359.60339 316.31745,359.08865 314.90247,359.03169 C 313.89374,358.56269 312.75092,358.52338 311.68183,358.33942 C 310.69103,358.13044 309.9059,357.49122 308.9521,357.23407 C 307.98016,356.7331 306.99094,356.18409 306.22767,355.41304 C 305.40249,354.9021 304.83796,353.08429 305.84881,352.70079 C 306.92358,351.88909 308.31388,351.59797 309.50516,350.93571 C 310.78472,350.52912 312.08049,350.08675 313.41639,349.90501 C 314.37275,349.5104 315.76805,349.96178 316.53585,349.49726 C 317.63103,349.87692 318.82435,349.50889 319.97138,349.51759 C 321.30677,349.56813 323.08277,349.59636 323.725,349.74658 C 325.32722,350.12134 324.42927,350.7774 325.41571,350.93101 C 326.82194,350.78739 326.84808,350.36839 328.22086,350.36538 C 329.36956,350.41143 330.44016,350.77558 331.54842,351.04438 C 332.69825,351.14495 333.74643,351.74277 334.83159,352.10134 C 335.89676,352.32204 336.65481,353.05123 337.59959,353.45264 C 338.3133,354.07642 339.76684,354.52755 339.65509,355.64919 C 339.53715,356.95912 337.52407,356.86473 336.49085,357.3946 C 335.46311,357.64333 334.48919,357.86652 333.445,358.16783 C 332.52341,358.42894 331.53656,358.70928 330.54356,358.62192 C 329.28858,358.60341 328.15908,359.19705 326.89096,359.07211 C 325.41697,359.34714 323.93866,359.5632 322.39852,359.52055 L 322.39852,359.52055 z "
       id="path3286" />
    <path
       sodipodi:nodetypes="cc"
       id="path3288"
       d="M 324.71624,349.66152 C 314.83113,358.71891 314.83113,359.35934 314.83113,359.35934"
       style="fill:none;fill-rule:evenodd;stroke:#000000;stroke-width:1.23385274;stroke-linecap:butt;stroke-linejoin:miter;stroke-miterlimit:4;stroke-dasharray:none;stroke-opacity:1" />
    <path
       style="fill:none;fill-rule:evenodd;stroke:#000000;stroke-width:1.23385274;stroke-linecap:butt;stroke-linejoin:miter;stroke-miterlimit:4;stroke-dasharray:none;stroke-opacity:1"
       d="M 327.42981,349.936 C 317.54469,358.99339 317.54469,359.63381 317.54469,359.63381"
       id="path3290"
       sodipodi:nodetypes="cc" />
    <path
       id="path3292"
       d="M 322.64815,395.98111 C 324.41186,394.61976 327.75281,394.47007 326.31509,391.38575 C 326.14111,388.34135 326.61721,383.79084 326.63683,380.77276 C 326.46282,378.49117 326.99328,376.36313 327.20535,374.20526 C 328.40381,371.00365 323.63896,370.1561 321.60205,368.83492 C 318.63722,367.83114 315.22747,366.83035 312.20848,367.50889 C 308.61133,367.79242 304.89124,367.48013 301.24761,367.64534 C 298.66387,367.88929 296.22423,368.76667 293.70808,369.1865 C 291.14693,369.79355 288.54234,370.40939 286.17391,371.60926 C 283.84322,372.43972 281.92088,374.27258 280.95297,376.41182 C 281.23081,378.67427 282.31716,380.93528 282.01855,383.32714 C 282.16564,386.06878 281.99075,390.38235 281.42639,393.0693 C 281.91567,393.9176 282.76528,394.54559 283.60044,395.18487 C 290.92913,397.93635 295.24667,399.22358 300.95186,399.24041 C 308.85149,399.26372 315.19716,398.36986 322.64815,395.98111 z "
       style="fill:#000000"
       sodipodi:nodetypes="cccccccccccccsc" />
    <path
       id="path3294"
       d="M 300.81755,396.57982 C 302.80774,396.51371 304.83007,396.71597 306.79973,396.47146 C 308.0015,396.16758 309.26976,396.41668 310.46216,396.04143 C 312.18784,395.82087 313.88624,395.55222 315.6139,395.29464 C 316.7965,394.76479 318.09099,394.69089 319.27972,394.24555 C 320.5806,393.62462 322.00622,393.41961 323.26784,392.65632 C 324.89261,392.05708 323.45257,390.09655 323.91514,388.7524 C 323.91031,386.54537 323.89064,384.33799 323.94032,382.1313 C 324.11809,380.95401 324.78892,378.42785 324.42935,377.96617 C 323.30776,378.88943 322.28255,379.98326 320.90585,380.43448 C 319.69034,381.36455 318.0964,381.45713 316.69998,382.01377 C 315.18706,381.86043 313.70535,384.25797 312.19807,384.41005 C 310.832,384.77345 309.40286,383.28744 308.02943,383.6217 C 306.06661,383.61215 304.10322,383.65788 302.14089,383.59609 C 300.81429,383.18345 299.38015,383.20435 298.06854,382.78234 C 296.65687,382.63503 295.27801,382.34792 293.8787,382.07891 C 292.57007,381.76068 291.13705,381.76181 289.86213,381.36437 C 288.24728,381.31638 286.72326,380.85396 285.22743,380.40063 C 284.38557,379.94801 283.89369,380.03011 284.50241,381.02025 C 284.52839,382.51393 285.28821,383.91163 285.04591,385.48035 C 285.12562,387.10935 284.7926,388.72381 284.58933,390.26348 C 283.73419,391.95791 285.60395,392.40346 286.71287,392.98462 C 287.84928,393.7446 289.18164,394.10691 290.40985,394.68767 C 292.13821,395.12517 293.83773,395.79688 295.64267,395.78961 C 297.2479,396.28692 298.90457,396.33847 300.54537,396.60033 L 300.81755,396.57982 L 300.81755,396.57982 z "
       style="fill:#ffffff"
       sodipodi:nodetypes="ccccccccccccccccccccccccccc" />
    <path
       id="path3296"
       d="M 304.47888,381.61835 C 305.75649,382.09896 307.21986,381.96644 308.50251,381.64065 C 310.18455,381.7229 311.72395,381.07328 313.40977,381.00138 C 314.61159,380.40949 315.97316,380.35987 317.24688,380.12771 C 318.42734,379.86395 319.36274,379.05724 320.49913,378.7327 C 321.65711,378.10045 322.83568,377.40758 323.74504,376.43447 C 324.72817,375.78965 325.40077,373.49547 324.19642,373.01148 C 322.91593,371.98707 321.2595,371.61967 319.84019,370.78386 C 318.31571,370.27073 316.77192,369.71243 315.18031,369.48306 C 314.04089,368.98505 312.37851,369.55472 311.46374,368.96847 C 310.15892,369.44762 308.7372,368.98314 307.37062,368.99414 C 305.77961,369.0579 303.66365,369.09354 302.89849,369.28313 C 300.9896,369.75609 302.05941,370.58407 300.88416,370.77793 C 299.20876,370.59668 299.17761,370.06788 297.54208,370.06409 C 296.17349,370.1222 294.89797,370.58176 293.57757,370.92101 C 292.20765,371.04794 290.95883,371.80241 289.66596,372.25495 C 288.3969,372.53349 287.49375,373.45375 286.36813,373.96035 C 285.5178,374.74759 283.78603,375.31695 283.91917,376.7325 C 284.05968,378.3857 286.4581,378.26657 287.68909,378.9353 C 288.91355,379.24921 290.07389,379.53089 291.31796,379.91116 C 292.41596,380.24069 293.59169,380.59449 294.77477,380.48424 C 296.26997,380.46088 297.61567,381.21009 299.12653,381.0524 C 300.88265,381.3995 302.64393,381.67218 304.47888,381.61835 L 304.47888,381.61835 z "
       style="fill:#ffffff"
       sodipodi:nodetypes="cccccccccccscccccccccccc" />
    <path
       style="fill:none;fill-rule:evenodd;stroke:#000000;stroke-width:1.51297832;stroke-linecap:butt;stroke-linejoin:miter;stroke-miterlimit:4;stroke-dasharray:none;stroke-opacity:1"
       d="M 301.71752,369.17578 C 313.49476,380.60665 313.49476,381.4149 313.49476,381.4149"
       id="path3298"
       sodipodi:nodetypes="cc" />
    <path
       sodipodi:nodetypes="cc"
       id="path3300"
       d="M 298.48453,369.52218 C 310.2618,380.95305 310.2618,381.76129 310.2618,381.76129"
       style="fill:none;fill-rule:evenodd;stroke:#000000;stroke-width:1.51297832;stroke-linecap:butt;stroke-linejoin:miter;stroke-miterlimit:4;stroke-dasharray:none;stroke-opacity:1" />
    <g
       id="g4465">
      <path
         inkscape:connector-curvature="0"
         id="path4232"
         d="m 185.50604,302.24362 c -2.47138,-4.34782 -6.87572,-7.97595 -12.0256,-8.25573 -4.33321,1.10588 -6.88045,6.07413 -5.95234,10.31633 -1.13785,17.97425 4.99897,35.68418 2.82252,53.64793 -0.92363,3.86848 -4.75363,7.66301 -8.98391,6.46572 -4.7684,-1.11896 -7.13324,-6.37073 -6.97651,-10.90781 -0.1378,-1.08056 -0.27707,-2.16216 -0.49167,-3.23073"
         style="fill:none;fill-rule:evenodd;stroke:#000000;stroke-width:4;stroke-linecap:round;stroke-linejoin:round;stroke-miterlimit:4;stroke-dasharray:none;stroke-opacity:1" />
      <path
         inkscape:connector-curvature="0"
         id="path4234"
         d="m 161.93461,334.9222 c 0.73373,-1.87665 2.63831,-2.87089 4.30504,-3.79268 2.46653,-1.28785 5.14109,-2.11268 7.83152,-2.77783 1.87614,-0.73595 2.97218,-2.57563 4.64894,-3.60807"
         style="fill:none;fill-rule:evenodd;stroke:#000000;stroke-width:4;stroke-linecap:round;stroke-linejoin:round;stroke-miterlimit:4;stroke-dasharray:none;stroke-opacity:1" />
      <g
         style="stroke-width:4;stroke-miterlimit:4;stroke-dasharray:none;stroke-linejoin:round;stroke-linecap:round"
         id="g4441">
        <path
           style="fill:none;fill-rule:evenodd;stroke:#000000;stroke-width:4;stroke-linecap:round;stroke-linejoin:round;stroke-miterlimit:4;stroke-dasharray:none;stroke-opacity:1"
           d="m 198.72625,314.03099 c -3.5375,-0.0238 -6.48061,4.50523 -7.96379,9.58639 -2.21797,7.85017 -2.09296,16.77965 -1.92864,25.25826 0.50937,6.78712 3.23794,12.7092 6.76631,15.95271 0.59844,0.6508 1.20887,1.26988 1.82312,1.87754"
           id="path4389"
           inkscape:connector-curvature="0" />
        <path
           style="fill:none;fill-rule:evenodd;stroke:#000000;stroke-width:4;stroke-linecap:round;stroke-linejoin:round;stroke-miterlimit:4;stroke-dasharray:none;stroke-opacity:1"
           d="m 215.10607,315.05896 c 2.60728,4.24335 4.59707,9.33862 5.51862,14.88992 1.92622,7.93124 3.27132,16.54333 2.11318,24.94038 -1.20721,4.44941 -4.00243,7.38121 -5.56201,11.52409 -0.26805,0.53587 -0.54126,1.06636 -0.82375,1.58632"
           id="path4395"
           inkscape:connector-curvature="0" />
      </g>
    </g>
  </g>
</svg>
